<?xml version="1.0" encoding="utf-8"?>
<!-- Generator: Adobe Illustrator 26.0.1, SVG Export Plug-In . SVG Version: 6.00 Build 0)  -->
<svg version="1.1" id="Layer_1" xmlns="http://www.w3.org/2000/svg" xmlns:xlink="http://www.w3.org/1999/xlink" x="0px" y="0px"
	 viewBox="0 0 100 100" style="enable-background:new 0 0 100 100;" xml:space="preserve">
<style type="text/css">
	.st0{fill:#264DE4;}
	.st1{fill:#2965F1;}
	.st2{fill:#EBEBEB;}
	.st3{fill:#FFFFFF;}
</style>
<g id="layer1" transform="translate(-193.633,-276.3622)">
	<g id="g3013" transform="translate(119,276.3622)">
		<polygon id="polygon2989" class="st0" points="159.9,20.2 153.5,91.5 124.9,99.4 96.4,91.5 90,20.2 		"/>
		<polygon id="polygon2991" class="st1" points="148.1,86.9 153.5,26 125,26 125,93.3 		"/>
		<polygon id="polygon2993" class="st2" points="104.6,52.5 105.4,61.2 125,61.2 125,52.5 		"/>
		<polygon id="polygon2995" class="st2" points="125,34.8 124.9,34.8 103,34.8 103.8,43.5 125,43.5 		"/>
		<polygon id="polygon2997" class="st2" points="125,84.3 125,75.2 124.9,75.2 115.2,72.5 114.6,65.6 109.8,65.6 105.8,65.6 
			107,79.3 124.9,84.3 		"/>
		<path id="path2999" d="M106.5,0.8h10.6v4.4h-6.2v4.4h6.2v4.4h-10.6V0.8z"/>
		<path id="path3001" d="M119.2,0.8h10.6v3.9h-6.2v0.8h6.2v8.9h-10.6v-4h6.2V9.5h-6.2V0.8z"/>
		<path id="path3003" d="M131.9,0.8h10.6v3.9h-6.2v0.8h6.2v8.9h-10.6v-4h6.2V9.5h-6.2V0.8z"/>
		<polygon id="polygon3005" class="st3" points="135.7,61.2 134.7,72.5 124.9,75.2 124.9,84.3 142.9,79.3 143,77.8 145,54.8 
			145.3,52.5 146.8,34.8 124.9,34.8 124.9,43.5 137.2,43.5 136.5,52.5 124.9,52.5 124.9,61.2 		"/>
	</g>
</g>
</svg>
