<?xml version="1.0" encoding="utf-8"?>
<!-- Generator: Adobe Illustrator 26.0.1, SVG Export Plug-In . SVG Version: 6.00 Build 0)  -->
<svg version="1.1" id="Layer_1" xmlns="http://www.w3.org/2000/svg" xmlns:xlink="http://www.w3.org/1999/xlink" x="0px" y="0px"
	 viewBox="0 0 98.6 96.2" style="enable-background:new 0 0 98.6 96.2;" xml:space="preserve">
<style type="text/css">
	.st0{fill-rule:evenodd;clip-rule:evenodd;fill:#002480;}
</style>
<path class="st0" d="M49.3,0C22.1,0,0,22.1,0,49.3c0,21.2,13.6,40.1,33.7,46.8c2.5,0.4,3.4-1,3.4-2.3s-0.1-5-0.1-9.2
	c-12.4,2.3-15.6-3-16.6-5.8c-0.6-1.4-3-5.8-5.1-7c-1.7-0.9-4.2-3.2-0.1-3.3c3.9-0.1,6.7,3.6,7.6,5.1c4.4,7.4,11.5,5.4,14.4,4.1
	c0.2-2.5,1.3-4.8,3.2-6.6C29.5,69.9,18,65.6,18,46.7c-0.1-4.9,1.7-9.6,5.1-13.2c-0.5-1.2-2.2-6.3,0.5-13.1c0,0,4.1-1.3,13.6,5.1
	c8.1-2.2,16.6-2.2,24.6,0c9.4-6.4,13.6-5.1,13.6-5.1c2.7,6.8,1,11.8,0.5,13.1c3.3,3.6,5.1,8.4,5,13.2c0.1,18.9-11.5,23.2-22.4,24.4
	c1.8,1.5,3.3,4.5,3.3,9.1c0,6.6-0.1,11.9-0.1,13.6c0,1.3,0.9,2.8,3.4,2.3c25.8-8.7,39.7-36.6,31-62.5C89.3,13.5,70.5,0,49.3,0z"/>
</svg>
