<svg id="Layer_1" data-name="Layer 1" xmlns="http://www.w3.org/2000/svg" viewBox="0 0 99.64 97.18"><defs><style>.cls-1{fill:#fff;fill-rule:evenodd;}</style></defs><path class="cls-1" d="M49.84.83A49.82,49.82,0,0,0,34.08,97.92c2.49.43,3.43-1.06,3.43-2.37s-.07-5.11-.07-9.28c-12.51,2.3-15.75-3-16.75-5.85-.56-1.44-3-5.86-5.11-7-1.74-.94-4.23-3.24-.06-3.3,3.93-.06,6.73,3.61,7.66,5.1,4.49,7.54,11.65,5.42,14.51,4.11a10.54,10.54,0,0,1,3.18-6.66C29.78,71.39,18.2,67.09,18.2,48a19.38,19.38,0,0,1,5.11-13.39c-.5-1.24-2.25-6.35.49-13.2,0,0,4.18-1.31,13.71,5.11a47,47,0,0,1,24.91,0c9.52-6.48,13.7-5.11,13.7-5.11,2.74,6.85,1,12,.49,13.2A19.27,19.27,0,0,1,81.72,48c0,19.12-11.64,23.36-22.73,24.6,1.81,1.56,3.36,4.55,3.36,9.22,0,6.66-.06,12-.06,13.7,0,1.31.94,2.86,3.43,2.37A49.85,49.85,0,0,0,49.84.83Z" transform="translate(-0.02 -0.83)"/></svg>