<?xml version="1.0" encoding="utf-8"?>
<!-- Generator: Adobe Illustrator 26.0.1, SVG Export Plug-In . SVG Version: 6.00 Build 0)  -->
<svg version="1.1" id="Layer_1" xmlns="http://www.w3.org/2000/svg" xmlns:xlink="http://www.w3.org/1999/xlink" x="0px" y="0px"
	 viewBox="0 0 100 100" style="enable-background:new 0 0 100 100;" xml:space="preserve">
<style type="text/css">
	.st0{fill:#010101;}
	.st1{fill:#E44F26;}
	.st2{fill:#F1672A;}
	.st3{fill:#EBEBEB;}
	.st4{fill:#FFFFFF;}
</style>
<path class="st0" d="M22.9,0.6h4.5V5h4.1V0.6h4.5v13.4h-4.5V9.5h-4.1v4.5h-4.5 M41.8,5h-3.9V0.6h12.3V5h-4v8.9h-4.5 M52.1,0.6h4.7
	l2.9,4.7l2.9-4.7h4.7v13.4h-4.5V7.3l-3.1,4.8l-3.1-4.8v6.6h-4.4 M69.4,0.6h4.5v8.9h6.3v4.4H69.4"/>
<path class="st1" d="M22.7,91.8L16.3,20h70.3l-6.4,71.7l-28.8,8"/>
<path class="st2" d="M51.5,93.6V25.9h28.7l-5.5,61.2"/>
<path class="st3" d="M29.4,34.7h22.1v8.8H39l0.8,9h11.6v8.8H31.8 M32.2,65.7H41l0.6,7l9.8,2.6v9.2l-18.1-5"/>
<path class="st4" d="M73.5,34.7h-22v8.8h21.2 M71.9,52.5H51.4v8.8h10.8l-1,11.4l-9.8,2.6v9.1l18-5"/>
</svg>
