<?xml version="1.0" encoding="utf-8"?>
<!-- Generator: Adobe Illustrator 26.0.1, SVG Export Plug-In . SVG Version: 6.00 Build 0)  -->
<svg version="1.1" id="Layer_1" xmlns="http://www.w3.org/2000/svg" xmlns:xlink="http://www.w3.org/1999/xlink" x="0px" y="0px"
	 viewBox="0 0 100 100" style="enable-background:new 0 0 100 100;" xml:space="preserve">
<style type="text/css">
	.st0{fill:#EEC723;}
	.st1{fill:#FADE34;}
	.st2{fill:#EBEBEB;}
	.st3{fill:#FFFFFF;}
	.st4{fill:#171617;}
	.st5{fill:#030303;}
</style>
<g>
	<polygon class="st0" points="21.3,91.1 15.1,21.1 83.6,21.1 77.4,91 49.3,98.8 	"/>
	<polygon class="st1" points="49.3,92.8 72,86.5 77.3,26.7 49.3,26.7 	"/>
	<polygon class="st2" points="49.3,75 49.2,75 39.7,72.4 39.1,65.5 34.4,65.5 30.5,65.5 31.7,79 49.2,83.9 49.3,83.9 	"/>
	<polygon class="st2" points="50.4,61.2 50.4,52.7 39.9,52.7 41.1,39.2 50.5,38.9 50.4,30 33.3,30 32.7,36.3 30.7,58.9 30.5,61.2 
		32.8,61.2 	"/>
	<polygon class="st3" points="50.4,38.9 50.4,38.9 59.8,39.5 60.6,48.4 65.2,48.4 69.2,48.4 67.7,31.8 50.4,30 50.4,30 	"/>
	<polyline class="st3" points="68.3,39 67.6,30 49.5,30 49.5,35.6 49.5,38.9 49.5,39 68.3,39 	"/>
	<polygon class="st3" points="49.3,52.7 49.3,61.2 59.8,61.2 58.8,72.4 49.3,75 49.3,83.9 66.9,79 67,77.6 69,55 69.2,52.7 
		66.9,52.7 	"/>
	<path class="st3" d="M67.2,38.6"/>
	<g>
		<polygon class="st4" points="61.4,5.6 55.8,5.6 61.7,12 61.7,15.1 49.5,15.1 49.5,11.5 55.4,11.5 49.5,5.1 49.5,2 61.4,2 		"/>
		<path class="st5" d="M47.3,2v13.1H36.8v-4.3h6.1V2H47.3L47.3,2z"/>
	</g>
	<path class="st3" d="M67.1,38.6"/>
</g>
</svg>
