<svg id="Layer_1" data-name="Layer 1" xmlns="http://www.w3.org/2000/svg" viewBox="0 0 276.99 192.54"><defs><style>.cls-1,.cls-3,.cls-4{fill:blue;}.cls-2,.cls-5{fill:#fff;}.cls-3,.cls-4,.cls-5{stroke:#fff;}.cls-3,.cls-5{stroke-miterlimit:10;}.cls-3,.cls-4{stroke-width:2px;}.cls-4{stroke-linejoin:round;}.cls-5{stroke-width:0.75px;}</style></defs><title>website layout</title><path class="cls-1" d="M88.16,60.72c-1.81,0-3.23,0-4.24-.09a87.54,87.54,0,0,1-21.36-4.47A41.13,41.13,0,0,1,89.64,44.68c.74,0,79.06-2,81.72-2,1,0,1.67.25,1.94.71.53.91-.1,2.8-.7,4l-19,12.56a4.41,4.41,0,0,0-.81-2.55,2.78,2.78,0,0,0-2.24-1h-.27a4.3,4.3,0,0,0-2.41,1.31c-.32.28-.86.75-1.08.76-13.11.7-45.07,2.33-58.67,2.33Z"/><path class="cls-2" d="M171.36,41.64v2c.78,0,1,.18,1.07.22a4.56,4.56,0,0,1-.62,2.77L154.37,58.19a4.43,4.43,0,0,0-.76-1.5,3.82,3.82,0,0,0-3-1.38h-.34a5.23,5.23,0,0,0-3,1.55c-.2.17-.49.42-.65.53-13.2.7-44.92,2.32-58.45,2.32-1.79,0-3.19,0-4.18-.09a91.75,91.75,0,0,1-19.51-3.84A40,40,0,0,1,89.66,45.68c2.28,0,79.05-2,81.7-2v-2m0,0c-2.74,0-81.79,2-81.79,2A42.5,42.5,0,0,0,61.24,56c-.16.12-.4.37.11.66,2.14,1.24,14,4.45,22.51,4.94,1.07.06,2.53.09,4.3.09,13.7,0,46-1.66,58.72-2.33,1.13-.06,2.27-2,3.51-2.07h.2c2.88,0,1.9,4.53,1.9,4.53L173.32,48a.11.11,0,0,0,.06-.07c.3-.54,3.29-6.25-2-6.32Z"/><path class="cls-3" d="M124.75,77.44s-28.07,9.41-33.1,10.29-7.47,1.63-11.64.75c-3.89-.82-9,.75-9.68-.1s-1.78-3.32-1.5-5c.2-1.12,3.26-1.59,5.93-3.47s3.8-4.88,14.4-8.12c6.22-1.9,76.09-20.11,76.09-20.11Z"/><path class="cls-4" d="M82.46,80.41c-.35-2.3,68.87-20.26,68.87-20.26L133,70S84.63,85.23,83.8,83.19Z"/><path class="cls-1" d="M87.27,142.85a16.41,16.41,0,0,1-8.75-30.29l97-62.21a16.61,16.61,0,0,1,9-2.65,16.34,16.34,0,0,1,16.16,18.94,16.39,16.39,0,0,1-7.34,11.23l-.4.25L96.53,140l-.42.28A16.35,16.35,0,0,1,87.27,142.85Z"/><path class="cls-2" d="M184.52,48.7h0A15.36,15.36,0,0,1,199.7,66.49,15.45,15.45,0,0,1,192.8,77c-.12.08-.24.16-.37.23l0,0,0,0L96,139.12l0,0,0,0-.36.24a15.4,15.4,0,1,1-16.51-26l97-62.21a15.67,15.67,0,0,1,8.48-2.49m0-2A17.74,17.74,0,0,0,175,49.5L78,111.72a17.4,17.4,0,0,0,9.29,32.13,17.29,17.29,0,0,0,9.38-2.76l.42-.28L193.44,79l.44-.27A17.42,17.42,0,0,0,197.93,53a17.24,17.24,0,0,0-13.41-6.31Z"/><path class="cls-3" d="M125.52,113.78l-6.34,4.51s26.46,2.57,29.52,7.31a18.91,18.91,0,0,0,12.17,7.34c8.88,1.36,31.35,4.13,38.11,3,12.79-2.16,14.18-6,14.18-6s-54.35-9.22-61.27-9.8C151.89,120.11,138.75,113.92,125.52,113.78Z"/><path class="cls-3" d="M212.46,117.77a39,39,0,0,0-16.34-5.4c-13.89-.89-44.86,4.64-43.5,5.92l-6.34,9c-.79.81-3.89,1.51-5,1.6l-36.45-1.25-11.55,7.18c15.12-1.53,64.89-.86,74.72-2.17,2.28-.31,1.23-4.08,4.35-5.17,2.58-.89,13.7-3.1,13.7-3.1Z"/><path class="cls-1" d="M84.61,137.86a16.41,16.41,0,0,1-8.75-30.29l97-62.22a16.69,16.69,0,0,1,9-2.64A16.34,16.34,0,0,1,198,61.65a16.39,16.39,0,0,1-7.34,11.23l-.4.25L93.87,135l-.42.29A16.35,16.35,0,0,1,84.61,137.86Z"/><path class="cls-2" d="M181.86,43.71h0A15.34,15.34,0,0,1,197,61.5,15.43,15.43,0,0,1,190.14,72c-.12.08-.24.16-.37.23l0,0,0,0L93.33,134.13l0,0,0,0-.36.24a15.4,15.4,0,1,1-16.51-26l97-62.21a15.67,15.67,0,0,1,8.48-2.49m0-2a17.74,17.74,0,0,0-9.56,2.8l-97,62.22a17.4,17.4,0,0,0,9.29,32.13A17.29,17.29,0,0,0,94,136.1l.42-.28L190.78,74l.44-.26A17.42,17.42,0,0,0,195.27,48a17.24,17.24,0,0,0-13.41-6.31Z"/><path class="cls-5" d="M154.31,71.37A8.8,8.8,0,1,0,162.65,62a8.87,8.87,0,0,0-8.34,9.37m9.3,9.79a10.25,10.25,0,1,1,9.55-10.73,10.15,10.15,0,0,1-9.55,10.73"/><path class="cls-5" d="M163.31,77.16a6.44,6.44,0,0,1-4.65-1.72.63.63,0,0,1,.08-1,.7.7,0,0,1,.75.09,5.11,5.11,0,0,0,2.15,1.18,5.19,5.19,0,0,0,2.25.11A5.09,5.09,0,0,0,167,74.12a.63.63,0,0,1,.61-.24.66.66,0,0,1,.51.47.6.6,0,0,1-.14.6,5.82,5.82,0,0,1-1.1,1,6.48,6.48,0,0,1-1.94,1,7.44,7.44,0,0,1-1.59.26"/><path class="cls-5" d="M166.55,66.82a1.53,1.53,0,1,1-1.44,1.59,1.52,1.52,0,0,1,1.44-1.59"/><path class="cls-5" d="M159.27,67.19a1.53,1.53,0,1,1-1.44,1.58,1.52,1.52,0,0,1,1.44-1.58"/><line class="cls-3" x1="90.17" y1="50.28" x2="109.51" y2="49.57"/><circle class="cls-3" cx="160.33" cy="124.11" r="2.59"/></svg>