<svg id="Layer_1" data-name="Layer 1" xmlns="http://www.w3.org/2000/svg" viewBox="0 0 99.21 99.21"><defs><style>.cls-1{fill:#fff;fill-rule:evenodd;}</style></defs><path class="cls-1" d="M85.13,14.85A49.6,49.6,0,1,0,99.66,49.93,49.45,49.45,0,0,0,85.13,14.85Zm-50.29,64H22.32V38.45H34.84ZM28.52,33.15a7.46,7.46,0,1,1,7.4-7.46A7.43,7.43,0,0,1,28.52,33.15ZM81.75,78.86H69.29V57.65c0-5.82-2.21-9.07-6.82-9.07-5,0-7.62,3.38-7.62,9.07V78.86h-12V38.45h12v5.44A14.1,14.1,0,0,1,67,37.21c8.58,0,14.72,5.24,14.72,16.06Z" transform="translate(-0.45 -0.32)"/></svg>