<?xml version="1.0" encoding="utf-8"?>
<!-- Generator: Adobe Illustrator 27.8.0, SVG Export Plug-In . SVG Version: 6.00 Build 0)  -->
<svg version="1.1" id="Layer_1" xmlns="http://www.w3.org/2000/svg" xmlns:xlink="http://www.w3.org/1999/xlink" x="0px" y="0px"
	 viewBox="0 0 267.7 532" style="enable-background:new 0 0 267.7 532;" xml:space="preserve">
<style type="text/css">
	.st0{fill:url(#SVGID_1_);}
	.st1{fill:url(#SVGID_00000124843465968871490720000016782034348414380987_);}
	.st2{fill:url(#SVGID_00000014594833757375240550000016957330903781396132_);}
</style>
<linearGradient id="SVGID_1_" gradientUnits="userSpaceOnUse" x1="235.9193" y1="195.4263" x2="5.9193" y2="189.4263">
	<stop  offset="0" style="stop-color:#E5E2DF"/>
	<stop  offset="0" style="stop-color:#DED9D6"/>
	<stop  offset="6.299578e-02" style="stop-color:#CFCAC9"/>
	<stop  offset="0.1833" style="stop-color:#A8A4A7"/>
	<stop  offset="0.264" style="stop-color:#8B878D"/>
	<stop  offset="0.5225" style="stop-color:#F3F4F4"/>
	<stop  offset="0.5842" style="stop-color:#E5E5E6"/>
	<stop  offset="0.7027" style="stop-color:#C0BEC0"/>
	<stop  offset="0.8647" style="stop-color:#858085"/>
	<stop  offset="0.8764" style="stop-color:#807B80"/>
	<stop  offset="1" style="stop-color:#D1D3D4"/>
	<stop  offset="1" style="stop-color:#A7A9AC"/>
</linearGradient>
<path class="st0" d="M133.8,0C59.9,0,0,59.9,0,133.8l0,0V261c0,54.9,33.6,102.5,81.2,123.2V341c-25.8-17.4-43.1-46.5-43.1-80.1
	V133.8c0-52.6,43.1-95.8,95.8-95.8c52.9,0,95.7,42.8,95.8,95.7c0,0,0,0.1,0,0.1V261c0,33.6-17.4,62.7-43.1,80.1v43.1
	c47.6-20.7,81.2-67.8,81.2-123.2V133.8C267.7,59.9,207.8,0,133.8,0L133.8,0z"/>
<linearGradient id="SVGID_00000139252535041141506270000004583064552656709811_" gradientUnits="userSpaceOnUse" x1="237.7036" y1="127.0283" x2="7.7036" y2="121.0283">
	<stop  offset="0" style="stop-color:#E5E2DF"/>
	<stop  offset="0" style="stop-color:#DED9D6"/>
	<stop  offset="6.299578e-02" style="stop-color:#CFCAC9"/>
	<stop  offset="0.1833" style="stop-color:#A8A4A7"/>
	<stop  offset="0.264" style="stop-color:#8B878D"/>
	<stop  offset="0.5225" style="stop-color:#F3F4F4"/>
	<stop  offset="0.5842" style="stop-color:#E5E5E6"/>
	<stop  offset="0.7027" style="stop-color:#C0BEC0"/>
	<stop  offset="0.8647" style="stop-color:#858085"/>
	<stop  offset="0.8764" style="stop-color:#807B80"/>
	<stop  offset="1" style="stop-color:#D1D3D4"/>
	<stop  offset="1" style="stop-color:#A7A9AC"/>
</linearGradient>
<path style="fill:url(#SVGID_00000139252535041141506270000004583064552656709811_);" d="M133.8,169.1c10.4,0.1,18.9-8.3,19-18.8
	c0-0.1,0-0.2,0-0.2V98.6c0-10.5-8.5-19-19-19s-19,8.5-19,19v51.5C114.9,160.6,123.4,169,133.8,169.1z"/>
<linearGradient id="SVGID_00000068645823165415325050000002305843514432568237_" gradientUnits="userSpaceOnUse" x1="230.3458" y1="409.0776" x2="0.3458" y2="403.0776">
	<stop  offset="0" style="stop-color:#E5E2DF"/>
	<stop  offset="0" style="stop-color:#DED9D6"/>
	<stop  offset="6.299578e-02" style="stop-color:#CFCAC9"/>
	<stop  offset="0.1833" style="stop-color:#A8A4A7"/>
	<stop  offset="0.264" style="stop-color:#8B878D"/>
	<stop  offset="0.5225" style="stop-color:#F3F4F4"/>
	<stop  offset="0.5842" style="stop-color:#E5E5E6"/>
	<stop  offset="0.7027" style="stop-color:#C0BEC0"/>
	<stop  offset="0.8647" style="stop-color:#858085"/>
	<stop  offset="0.8764" style="stop-color:#807B80"/>
	<stop  offset="1" style="stop-color:#D1D3D4"/>
	<stop  offset="1" style="stop-color:#A7A9AC"/>
</linearGradient>
<path style="fill:url(#SVGID_00000068645823165415325050000002305843514432568237_);" d="M184.8,435.7l-32,31.9V300.2
	c0-10.5-8.5-19-19-19s-19,8.5-19,19l0,0V467l-31.9-31.9c-7.2-7.6-19.2-7.9-26.9-0.7c-7.6,7.2-7.9,19.2-0.7,26.9
	c0.2,0.3,0.5,0.5,0.7,0.7l64.4,64.4c7.4,7.4,19.3,7.5,26.8,0.1c0,0,0.1-0.1,0.1-0.1l64.4-64.4c7.3-7.5,7.3-19.4,0-26.9
	C203.8,427.8,192.1,427.8,184.8,435.7L184.8,435.7z"/>
</svg>
