<svg id="Layer_1" data-name="Layer 1" xmlns="http://www.w3.org/2000/svg" viewBox="0 0 45.81 43.5"><defs><style>.cls-1{fill:#fff;}</style></defs><title>smile</title><path class="cls-1" d="M40.81,21.61c-.13-9.45-8.26-17-18.17-16.86S4.72,12.55,4.81,22,13,38.91,23,38.82,40.87,31,40.81,21.61M22.62,2.25c11.49-.07,20.72,8.55,20.82,19.34S34.38,41.22,23,41.31,2.26,32.76,2.18,22,11.23,2.39,22.62,2.25"/><path class="cls-1" d="M22.89,9.89a13.78,13.78,0,0,1,9.37,3.62,1.18,1.18,0,0,1-.24,2,1.5,1.5,0,0,1-1.53-.23,10.81,10.81,0,0,0-4.31-2.42,11.67,11.67,0,0,0-4.59-.39,10.91,10.91,0,0,0-6.41,2.93,1.33,1.33,0,0,1-1.28.41,1.26,1.26,0,0,1-1-.93,1.1,1.1,0,0,1,.33-1.13,13.58,13.58,0,0,1,2.35-1.83,13.81,13.81,0,0,1,4-1.65,16.15,16.15,0,0,1,3.26-.37"/><path class="cls-1" d="M15.4,29.33a3,3,0,0,1-3.09-2.95,3.08,3.08,0,1,1,3.09,2.95"/><path class="cls-1" d="M30.32,29.2a2.92,2.92,0,1,1,3.07-2.91,3,3,0,0,1-3.07,2.91"/></svg>