<?xml version="1.0" encoding="UTF-8"?><svg id="Layer_1" xmlns="http://www.w3.org/2000/svg" viewBox="0 0 41.26 39.06"><defs><style>.cls-1{fill:#fff;}</style></defs><path class="cls-1" d="m38.63,19.36c-.13-9.45-8.26-17-18.17-16.86S2.54,10.3,2.63,19.75c.09,9.45,8.19,16.91,18.19,16.82s17.87-7.82,17.81-17.21M20.44,0c11.49-.07,20.72,8.55,20.82,19.34.1,10.79-9.06,19.63-20.44,19.72S.08,30.51,0,19.75,9.05.14,20.44,0"/><path class="cls-1" d="m20.71,7.64c3.47-.02,6.81,1.28,9.37,3.62.51.4.6,1.15.2,1.66-.12.15-.27.26-.44.34-.51.21-1.1.12-1.53-.23-1.23-1.13-2.71-1.96-4.31-2.42-1.49-.43-3.05-.57-4.59-.39-2.4.24-4.66,1.27-6.41,2.93-.32.36-.81.51-1.28.41-.49-.09-.88-.45-1-.93-.12-.41.01-.85.33-1.13.71-.69,1.5-1.31,2.35-1.83,1.24-.76,2.59-1.31,4-1.65,1.07-.23,2.16-.36,3.26-.37"/><path class="cls-1" d="m13.22,27.08c-1.66.05-3.04-1.25-3.09-2.91,0-.01,0-.03,0-.04-.07-1.7,1.25-3.14,2.95-3.21,1.7-.07,3.14,1.25,3.21,2.95.07,1.7-1.25,3.14-2.95,3.21-.04,0-.08,0-.12,0"/><path class="cls-1" d="m28.14,26.95c-1.61-.08-2.85-1.46-2.77-3.07s1.46-2.85,3.07-2.77c1.55.08,2.77,1.37,2.77,2.92-.05,1.65-1.42,2.95-3.07,2.91"/></svg>