<?xml version="1.0" encoding="utf-8"?>
<!-- Generator: Adobe Illustrator 23.1.1, SVG Export Plug-In . SVG Version: 6.00 Build 0)  -->
<svg version="1.1" id="Layer_1" xmlns="http://www.w3.org/2000/svg" xmlns:xlink="http://www.w3.org/1999/xlink" x="0px" y="0px"
	 viewBox="0 0 1280 1024" style="enable-background:new 0 0 1280 1024;" xml:space="preserve">
<style type="text/css">
	.st0{fill:#1800FF;}
</style>
<g>
	<path class="st0" d="M538.22,531.2c-19.95-0.08-37.08,16.71-37.27,36.51c-0.2,21.24,16.2,38.12,37.18,38.27
		c20.37,0.15,37.39-16.56,37.59-36.93C575.93,548.36,559.01,531.29,538.22,531.2z M744.73,404.95
		c-32.17-31.33-70.83-46.93-113.36-47.61c-14.88,0.22-27.34,1.5-39.66,4.38c-17.66,4.15-34.12,11.04-49.44,20.71
		c-10.47,6.61-20.03,14.33-28.66,23.21c-3.92,4.03-5.67,8.9-4.22,14.41c1.65,6.24,5.65,10.46,12.07,12.06
		c6.25,1.55,11.18-0.82,15.57-5.11c21.81-21.29,47.98-33.52,78.19-36.8c18.91-2.06,37.54-0.33,55.75,5.56
		c19.85,6.43,37.35,16.83,52.03,31.5c4.99,4.99,13.63,5.64,18.57,3.13C751.38,425.42,753,413,744.73,404.95z M719.59,531.24
		c-20.34-0.05-37.31,16.87-37.33,37.2c-0.02,20.64,16.67,37.48,37.2,37.54c20.53,0.06,37.43-16.56,37.53-36.91
		C757.1,548.15,740.43,531.29,719.59,531.24z M719.59,531.24c-20.34-0.05-37.31,16.87-37.33,37.2
		c-0.02,20.64,16.67,37.48,37.2,37.54c20.53,0.06,37.43-16.56,37.53-36.91C757.1,548.15,740.43,531.29,719.59,531.24z
		 M744.73,404.95c-32.17-31.33-70.83-46.93-113.36-47.61c-14.88,0.22-27.34,1.5-39.66,4.38c-17.66,4.15-34.12,11.04-49.44,20.71
		c-10.47,6.61-20.03,14.33-28.66,23.21c-3.92,4.03-5.67,8.9-4.22,14.41c1.65,6.24,5.65,10.46,12.07,12.06
		c6.25,1.55,11.18-0.82,15.57-5.11c21.81-21.29,47.98-33.52,78.19-36.8c18.91-2.06,37.54-0.33,55.75,5.56
		c19.85,6.43,37.35,16.83,52.03,31.5c4.99,4.99,13.63,5.64,18.57,3.13C751.38,425.42,753,413,744.73,404.95z M538.22,531.2
		c-19.95-0.08-37.08,16.71-37.27,36.51c-0.2,21.24,16.2,38.12,37.18,38.27c20.37,0.15,37.39-16.56,37.59-36.93
		C575.93,548.36,559.01,531.29,538.22,531.2z M538.22,531.2c-19.95-0.08-37.08,16.71-37.27,36.51c-0.2,21.24,16.2,38.12,37.18,38.27
		c20.37,0.15,37.39-16.56,37.59-36.93C575.93,548.36,559.01,531.29,538.22,531.2z M744.73,404.95
		c-32.17-31.33-70.83-46.93-113.36-47.61c-14.88,0.22-27.34,1.5-39.66,4.38c-17.66,4.15-34.12,11.04-49.44,20.71
		c-10.47,6.61-20.03,14.33-28.66,23.21c-3.92,4.03-5.67,8.9-4.22,14.41c1.65,6.24,5.65,10.46,12.07,12.06
		c6.25,1.55,11.18-0.82,15.57-5.11c21.81-21.29,47.98-33.52,78.19-36.8c18.91-2.06,37.54-0.33,55.75,5.56
		c19.85,6.43,37.35,16.83,52.03,31.5c4.99,4.99,13.63,5.64,18.57,3.13C751.38,425.42,753,413,744.73,404.95z M719.59,531.24
		c-20.34-0.05-37.31,16.87-37.33,37.2c-0.02,20.64,16.67,37.48,37.2,37.54c20.53,0.06,37.43-16.56,37.53-36.91
		C757.1,548.15,740.43,531.29,719.59,531.24z M719.59,531.24c-20.34-0.05-37.31,16.87-37.33,37.2
		c-0.02,20.64,16.67,37.48,37.2,37.54c20.53,0.06,37.43-16.56,37.53-36.91C757.1,548.15,740.43,531.29,719.59,531.24z
		 M744.73,404.95c-32.17-31.33-70.83-46.93-113.36-47.61c-14.88,0.22-27.34,1.5-39.66,4.38c-17.66,4.15-34.12,11.04-49.44,20.71
		c-10.47,6.61-20.03,14.33-28.66,23.21c-3.92,4.03-5.67,8.9-4.22,14.41c1.65,6.24,5.65,10.46,12.07,12.06
		c6.25,1.55,11.18-0.82,15.57-5.11c21.81-21.29,47.98-33.52,78.19-36.8c18.91-2.06,37.54-0.33,55.75,5.56
		c19.85,6.43,37.35,16.83,52.03,31.5c4.99,4.99,13.63,5.64,18.57,3.13C751.38,425.42,753,413,744.73,404.95z M538.22,531.2
		c-19.95-0.08-37.08,16.71-37.27,36.51c-0.2,21.24,16.2,38.12,37.18,38.27c20.37,0.15,37.39-16.56,37.59-36.93
		C575.93,548.36,559.01,531.29,538.22,531.2z M538.22,531.2c-19.95-0.08-37.08,16.71-37.27,36.51c-0.2,21.24,16.2,38.12,37.18,38.27
		c20.37,0.15,37.39-16.56,37.59-36.93C575.93,548.36,559.01,531.29,538.22,531.2z M744.73,404.95
		c-32.17-31.33-70.83-46.93-113.36-47.61c-14.88,0.22-27.34,1.5-39.66,4.38c-17.66,4.15-34.12,11.04-49.44,20.71
		c-10.47,6.61-20.03,14.33-28.66,23.21c-3.92,4.03-5.67,8.9-4.22,14.41c1.65,6.24,5.65,10.46,12.07,12.06
		c6.25,1.55,11.18-0.82,15.57-5.11c21.81-21.29,47.98-33.52,78.19-36.8c18.91-2.06,37.54-0.33,55.75,5.56
		c19.85,6.43,37.35,16.83,52.03,31.5c4.99,4.99,13.63,5.64,18.57,3.13C751.38,425.42,753,413,744.73,404.95z M719.59,531.24
		c-20.34-0.05-37.31,16.87-37.33,37.2c-0.02,20.64,16.67,37.48,37.2,37.54c20.53,0.06,37.43-16.56,37.53-36.91
		C757.1,548.15,740.43,531.29,719.59,531.24z M719.59,531.24c-20.34-0.05-37.31,16.87-37.33,37.2
		c-0.02,20.64,16.67,37.48,37.2,37.54c20.53,0.06,37.43-16.56,37.53-36.91C757.1,548.15,740.43,531.29,719.59,531.24z
		 M741.57,430.39c9.81-4.97,11.43-17.39,3.16-25.44c-32.17-31.33-70.83-46.93-113.36-47.61c-14.88,0.22-27.34,1.5-39.66,4.38
		c-17.66,4.15-34.12,11.04-49.44,20.71c-10.47,6.61-20.03,14.33-28.66,23.21c-3.92,4.03-5.67,8.9-4.22,14.41
		c1.65,6.24,5.65,10.46,12.07,12.06c6.25,1.55,11.18-0.82,15.57-5.11c21.81-21.29,47.98-33.52,78.19-36.8
		c18.91-2.06,37.54-0.33,55.75,5.56c19.85,6.43,37.35,16.83,52.03,31.5C727.99,432.25,736.63,432.9,741.57,430.39z M538.22,531.2
		c-19.95-0.08-37.08,16.71-37.27,36.51c-0.2,21.24,16.2,38.12,37.18,38.27c20.37,0.15,37.39-16.56,37.59-36.93
		C575.93,548.36,559.01,531.29,538.22,531.2z M628.95,259.2c-138.41,0.43-250.44,111.08-250.62,250.53
		c-0.18,138.58,111,250.71,250.41,250.88c138.64,0.17,250.84-111.17,250.87-250.68C879.64,371.49,768.48,259.68,628.95,259.2z
		 M628.97,728.61c-121.02-0.01-218.68-97.99-218.64-218.71c0.04-120.68,97.58-218.49,218.51-218.6
		c120.45-0.1,218.36,97.29,218.86,218.58C847.35,630.6,749.96,728.61,628.97,728.61z M719.59,531.24
		c-20.34-0.05-37.31,16.87-37.33,37.2c-0.02,20.64,16.67,37.48,37.2,37.54c20.53,0.06,37.43-16.56,37.53-36.91
		C757.1,548.15,740.43,531.29,719.59,531.24z M741.57,430.39c9.81-4.97,11.43-17.39,3.16-25.44
		c-32.17-31.33-70.83-46.93-113.36-47.61c-14.88,0.22-27.34,1.5-39.66,4.38c-17.66,4.15-34.12,11.04-49.44,20.71
		c-10.47,6.61-20.03,14.33-28.66,23.21c-3.92,4.03-5.67,8.9-4.22,14.41c1.65,6.24,5.65,10.46,12.07,12.06
		c6.25,1.55,11.18-0.82,15.57-5.11c21.81-21.29,47.98-33.52,78.19-36.8c18.91-2.06,37.54-0.33,55.75,5.56
		c19.85,6.43,37.35,16.83,52.03,31.5C727.99,432.25,736.63,432.9,741.57,430.39z M538.22,531.2c-19.95-0.08-37.08,16.71-37.27,36.51
		c-0.2,21.24,16.2,38.12,37.18,38.27c20.37,0.15,37.39-16.56,37.59-36.93C575.93,548.36,559.01,531.29,538.22,531.2z M538.22,531.2
		c-19.95-0.08-37.08,16.71-37.27,36.51c-0.2,21.24,16.2,38.12,37.18,38.27c20.37,0.15,37.39-16.56,37.59-36.93
		C575.93,548.36,559.01,531.29,538.22,531.2z M744.73,404.95c-32.17-31.33-70.83-46.93-113.36-47.61
		c-14.88,0.22-27.34,1.5-39.66,4.38c-17.66,4.15-34.12,11.04-49.44,20.71c-10.47,6.61-20.03,14.33-28.66,23.21
		c-3.92,4.03-5.67,8.9-4.22,14.41c1.65,6.24,5.65,10.46,12.07,12.06c6.25,1.55,11.18-0.82,15.57-5.11
		c21.81-21.29,47.98-33.52,78.19-36.8c18.91-2.06,37.54-0.33,55.75,5.56c19.85,6.43,37.35,16.83,52.03,31.5
		c4.99,4.99,13.63,5.64,18.57,3.13C751.38,425.42,753,413,744.73,404.95z M719.59,531.24c-20.34-0.05-37.31,16.87-37.33,37.2
		c-0.02,20.64,16.67,37.48,37.2,37.54c20.53,0.06,37.43-16.56,37.53-36.91C757.1,548.15,740.43,531.29,719.59,531.24z
		 M719.59,531.24c-20.34-0.05-37.31,16.87-37.33,37.2c-0.02,20.64,16.67,37.48,37.2,37.54c20.53,0.06,37.43-16.56,37.53-36.91
		C757.1,548.15,740.43,531.29,719.59,531.24z M744.73,404.95c-32.17-31.33-70.83-46.93-113.36-47.61
		c-14.88,0.22-27.34,1.5-39.66,4.38c-17.66,4.15-34.12,11.04-49.44,20.71c-10.47,6.61-20.03,14.33-28.66,23.21
		c-3.92,4.03-5.67,8.9-4.22,14.41c1.65,6.24,5.65,10.46,12.07,12.06c6.25,1.55,11.18-0.82,15.57-5.11
		c21.81-21.29,47.98-33.52,78.19-36.8c18.91-2.06,37.54-0.33,55.75,5.56c19.85,6.43,37.35,16.83,52.03,31.5
		c4.99,4.99,13.63,5.64,18.57,3.13C751.38,425.42,753,413,744.73,404.95z M538.22,531.2c-19.95-0.08-37.08,16.71-37.27,36.51
		c-0.2,21.24,16.2,38.12,37.18,38.27c20.37,0.15,37.39-16.56,37.59-36.93C575.93,548.36,559.01,531.29,538.22,531.2z M538.22,531.2
		c-19.95-0.08-37.08,16.71-37.27,36.51c-0.2,21.24,16.2,38.12,37.18,38.27c20.37,0.15,37.39-16.56,37.59-36.93
		C575.93,548.36,559.01,531.29,538.22,531.2z M744.73,404.95c-32.17-31.33-70.83-46.93-113.36-47.61
		c-14.88,0.22-27.34,1.5-39.66,4.38c-17.66,4.15-34.12,11.04-49.44,20.71c-10.47,6.61-20.03,14.33-28.66,23.21
		c-3.92,4.03-5.67,8.9-4.22,14.41c1.65,6.24,5.65,10.46,12.07,12.06c6.25,1.55,11.18-0.82,15.57-5.11
		c21.81-21.29,47.98-33.52,78.19-36.8c18.91-2.06,37.54-0.33,55.75,5.56c19.85,6.43,37.35,16.83,52.03,31.5
		c4.99,4.99,13.63,5.64,18.57,3.13C751.38,425.42,753,413,744.73,404.95z M719.59,531.24c-20.34-0.05-37.31,16.87-37.33,37.2
		c-0.02,20.64,16.67,37.48,37.2,37.54c20.53,0.06,37.43-16.56,37.53-36.91C757.1,548.15,740.43,531.29,719.59,531.24z
		 M719.59,531.24c-20.34-0.05-37.31,16.87-37.33,37.2c-0.02,20.64,16.67,37.48,37.2,37.54c20.53,0.06,37.43-16.56,37.53-36.91
		C757.1,548.15,740.43,531.29,719.59,531.24z M744.73,404.95c-32.17-31.33-70.83-46.93-113.36-47.61
		c-14.88,0.22-27.34,1.5-39.66,4.38c-17.66,4.15-34.12,11.04-49.44,20.71c-10.47,6.61-20.03,14.33-28.66,23.21
		c-3.92,4.03-5.67,8.9-4.22,14.41c1.65,6.24,5.65,10.46,12.07,12.06c6.25,1.55,11.18-0.82,15.57-5.11
		c21.81-21.29,47.98-33.52,78.19-36.8c18.91-2.06,37.54-0.33,55.75,5.56c19.85,6.43,37.35,16.83,52.03,31.5
		c4.99,4.99,13.63,5.64,18.57,3.13C751.38,425.42,753,413,744.73,404.95z M538.22,531.2c-19.95-0.08-37.08,16.71-37.27,36.51
		c-0.2,21.24,16.2,38.12,37.18,38.27c20.37,0.15,37.39-16.56,37.59-36.93C575.93,548.36,559.01,531.29,538.22,531.2z"/>
	<path class="st0" d="M628.95,259.2c-138.41,0.43-250.44,111.08-250.62,250.53c-0.18,138.58,111,250.71,250.41,250.88
		c138.64,0.17,250.84-111.17,250.87-250.68C879.64,371.49,768.48,259.68,628.95,259.2z M628.97,728.61
		c-121.02-0.01-218.68-97.99-218.64-218.71c0.04-120.68,97.58-218.49,218.51-218.6c120.45-0.1,218.36,97.29,218.86,218.58
		C847.35,630.6,749.96,728.61,628.97,728.61z"/>
	<path class="st0" d="M741.57,430.39c-4.94,2.51-13.58,1.86-18.57-3.13c-14.68-14.67-32.18-25.07-52.03-31.5
		c-18.21-5.89-36.84-7.62-55.75-5.56c-30.21,3.28-56.38,15.51-78.19,36.8c-4.39,4.29-9.32,6.66-15.57,5.11
		c-6.42-1.6-10.42-5.82-12.07-12.06c-1.45-5.51,0.3-10.38,4.22-14.41c8.63-8.88,18.19-16.6,28.66-23.21
		c15.32-9.67,31.78-16.56,49.44-20.71c12.32-2.88,24.78-4.16,39.66-4.38c42.53,0.68,81.19,16.28,113.36,47.61
		C753,413,751.38,425.42,741.57,430.39z"/>
	<path class="st0" d="M575.72,569.05c-0.2,20.37-17.22,37.08-37.59,36.93c-20.98-0.15-37.38-17.03-37.18-38.27
		c0.19-19.8,17.32-36.59,37.27-36.51C559.01,531.29,575.93,548.36,575.72,569.05z"/>
	<path class="st0" d="M756.99,569.07c-0.1,20.35-17,36.97-37.53,36.91c-20.53-0.06-37.22-16.9-37.2-37.54
		c0.02-20.33,16.99-37.25,37.33-37.2C740.43,531.29,757.1,548.15,756.99,569.07z"/>
</g>
</svg>
